<mxfile host="Electron" modified="2024-05-08T12:46:24.996Z" agent="Mozilla/5.0 (Windows NT 10.0; Win64; x64) AppleWebKit/537.36 (KHTML, like Gecko) draw.io/24.2.5 Chrome/120.0.6099.109 Electron/28.1.0 Safari/537.36" etag="uit_kuJF-x1nam4hjinF" version="24.2.5" type="device">
  <diagram name="Seite-1" id="mloGl1FZkG6j8YJljajt">
    <mxGraphModel dx="1891" dy="1931" grid="1" gridSize="10" guides="1" tooltips="1" connect="1" arrows="1" fold="1" page="1" pageScale="1" pageWidth="1169" pageHeight="827" math="0" shadow="0">
      <root>
        <mxCell id="0" />
        <mxCell id="1" parent="0" />
        <mxCell id="_H1MacVeB-hTNpFYSpCH-32" style="edgeStyle=orthogonalEdgeStyle;orthogonalLoop=1;jettySize=auto;html=1;exitX=1;exitY=0.5;exitDx=0;exitDy=0;entryX=0;entryY=0.5;entryDx=0;entryDy=0;strokeColor=default;curved=1;startArrow=none;startFill=0;endArrow=none;endFill=0;" parent="1" source="_H1MacVeB-hTNpFYSpCH-1" target="_H1MacVeB-hTNpFYSpCH-3" edge="1">
          <mxGeometry relative="1" as="geometry" />
        </mxCell>
        <mxCell id="_H1MacVeB-hTNpFYSpCH-1" value="City (Key 1)" style="rounded=1;whiteSpace=wrap;html=1;strokeColor=#82b366;fillColor=#d5e8d4;" parent="1" vertex="1">
          <mxGeometry x="40" y="180" width="120" height="20" as="geometry" />
        </mxCell>
        <mxCell id="_H1MacVeB-hTNpFYSpCH-33" style="edgeStyle=orthogonalEdgeStyle;orthogonalLoop=1;jettySize=auto;html=1;exitX=1;exitY=0.5;exitDx=0;exitDy=0;entryX=0;entryY=0.5;entryDx=0;entryDy=0;strokeColor=default;endArrow=none;endFill=0;rounded=1;" parent="1" source="_H1MacVeB-hTNpFYSpCH-3" target="_H1MacVeB-hTNpFYSpCH-4" edge="1">
          <mxGeometry relative="1" as="geometry" />
        </mxCell>
        <mxCell id="_H1MacVeB-hTNpFYSpCH-3" value="Year (Key 2)" style="rounded=1;whiteSpace=wrap;html=1;strokeColor=#82b366;fillColor=#d5e8d4;" parent="1" vertex="1">
          <mxGeometry x="170" y="180" width="120" height="20" as="geometry" />
        </mxCell>
        <mxCell id="_H1MacVeB-hTNpFYSpCH-34" style="edgeStyle=orthogonalEdgeStyle;orthogonalLoop=1;jettySize=auto;html=1;exitX=1;exitY=0.5;exitDx=0;exitDy=0;entryX=0;entryY=0.5;entryDx=0;entryDy=0;strokeColor=default;endArrow=none;endFill=0;rounded=1;" parent="1" target="_H1MacVeB-hTNpFYSpCH-5" edge="1">
          <mxGeometry relative="1" as="geometry">
            <mxPoint x="510" y="-65" as="sourcePoint" />
            <Array as="points">
              <mxPoint x="450" y="-65" />
            </Array>
          </mxGeometry>
        </mxCell>
        <mxCell id="_H1MacVeB-hTNpFYSpCH-35" style="edgeStyle=orthogonalEdgeStyle;orthogonalLoop=1;jettySize=auto;html=1;exitX=1;exitY=0.5;exitDx=0;exitDy=0;entryX=0;entryY=0.75;entryDx=0;entryDy=0;strokeColor=default;endArrow=none;endFill=0;rounded=1;" parent="1" source="_H1MacVeB-hTNpFYSpCH-4" target="_H1MacVeB-hTNpFYSpCH-6" edge="1">
          <mxGeometry relative="1" as="geometry">
            <Array as="points">
              <mxPoint x="460" y="190" />
              <mxPoint x="460" y="119" />
            </Array>
          </mxGeometry>
        </mxCell>
        <mxCell id="_H1MacVeB-hTNpFYSpCH-36" style="edgeStyle=orthogonalEdgeStyle;orthogonalLoop=1;jettySize=auto;html=1;exitX=1;exitY=0.5;exitDx=0;exitDy=0;entryX=0;entryY=0.5;entryDx=0;entryDy=0;strokeColor=default;endArrow=none;endFill=0;rounded=1;" parent="1" source="_H1MacVeB-hTNpFYSpCH-4" target="_H1MacVeB-hTNpFYSpCH-7" edge="1">
          <mxGeometry relative="1" as="geometry" />
        </mxCell>
        <mxCell id="_H1MacVeB-hTNpFYSpCH-37" style="edgeStyle=orthogonalEdgeStyle;orthogonalLoop=1;jettySize=auto;html=1;exitX=1;exitY=0.5;exitDx=0;exitDy=0;entryX=0;entryY=0.5;entryDx=0;entryDy=0;strokeColor=default;endArrow=none;endFill=0;rounded=1;" parent="1" source="_H1MacVeB-hTNpFYSpCH-4" target="_H1MacVeB-hTNpFYSpCH-8" edge="1">
          <mxGeometry relative="1" as="geometry" />
        </mxCell>
        <mxCell id="Qochi8s055zn3npeWH5I-11" style="edgeStyle=orthogonalEdgeStyle;rounded=0;orthogonalLoop=1;jettySize=auto;html=1;exitX=1;exitY=0.5;exitDx=0;exitDy=0;entryX=0;entryY=0.5;entryDx=0;entryDy=0;endArrow=none;endFill=0;" parent="1" source="_H1MacVeB-hTNpFYSpCH-4" target="Qochi8s055zn3npeWH5I-1" edge="1">
          <mxGeometry relative="1" as="geometry">
            <Array as="points">
              <mxPoint x="450" y="190" />
              <mxPoint x="450" y="660" />
              <mxPoint x="519" y="660" />
            </Array>
          </mxGeometry>
        </mxCell>
        <mxCell id="_H1MacVeB-hTNpFYSpCH-4" value="Description (Key 3)" style="rounded=1;whiteSpace=wrap;html=1;strokeColor=#82b366;fillColor=#d5e8d4;" parent="1" vertex="1">
          <mxGeometry x="303.5" y="180" width="120" height="20" as="geometry" />
        </mxCell>
        <mxCell id="_H1MacVeB-hTNpFYSpCH-38" style="edgeStyle=orthogonalEdgeStyle;orthogonalLoop=1;jettySize=auto;html=1;exitX=1;exitY=0.5;exitDx=0;exitDy=0;entryX=0;entryY=0.5;entryDx=0;entryDy=0;strokeColor=default;endArrow=none;endFill=0;rounded=1;" parent="1" source="_H1MacVeB-hTNpFYSpCH-5" target="_H1MacVeB-hTNpFYSpCH-11" edge="1">
          <mxGeometry relative="1" as="geometry" />
        </mxCell>
        <mxCell id="_H1MacVeB-hTNpFYSpCH-39" style="edgeStyle=orthogonalEdgeStyle;orthogonalLoop=1;jettySize=auto;html=1;exitX=1;exitY=0.5;exitDx=0;exitDy=0;entryX=0;entryY=0.5;entryDx=0;entryDy=0;strokeColor=default;endArrow=none;endFill=0;rounded=1;" parent="1" source="_H1MacVeB-hTNpFYSpCH-5" target="_H1MacVeB-hTNpFYSpCH-12" edge="1">
          <mxGeometry relative="1" as="geometry" />
        </mxCell>
        <mxCell id="_H1MacVeB-hTNpFYSpCH-40" style="edgeStyle=orthogonalEdgeStyle;orthogonalLoop=1;jettySize=auto;html=1;exitX=1;exitY=0.5;exitDx=0;exitDy=0;entryX=0;entryY=0.5;entryDx=0;entryDy=0;strokeColor=default;endArrow=none;endFill=0;rounded=1;" parent="1" source="_H1MacVeB-hTNpFYSpCH-5" target="_H1MacVeB-hTNpFYSpCH-13" edge="1">
          <mxGeometry relative="1" as="geometry" />
        </mxCell>
        <mxCell id="HXhDjkl9s9T9HyKSKgx7-106" style="edgeStyle=orthogonalEdgeStyle;rounded=1;orthogonalLoop=1;jettySize=auto;html=1;exitX=1;exitY=0.5;exitDx=0;exitDy=0;entryX=0;entryY=0.5;entryDx=0;entryDy=0;endArrow=none;endFill=0;" parent="1" source="_H1MacVeB-hTNpFYSpCH-5" target="HXhDjkl9s9T9HyKSKgx7-88" edge="1">
          <mxGeometry relative="1" as="geometry" />
        </mxCell>
        <mxCell id="_H1MacVeB-hTNpFYSpCH-5" value="&quot;DTM&quot;" style="rounded=1;whiteSpace=wrap;html=1;strokeColor=default;" parent="1" vertex="1">
          <mxGeometry x="519" y="-75" width="120" height="20" as="geometry" />
        </mxCell>
        <mxCell id="_H1MacVeB-hTNpFYSpCH-41" style="edgeStyle=orthogonalEdgeStyle;orthogonalLoop=1;jettySize=auto;html=1;exitX=1;exitY=0.5;exitDx=0;exitDy=0;entryX=0;entryY=0.5;entryDx=0;entryDy=0;strokeColor=default;endArrow=none;endFill=0;rounded=1;" parent="1" source="_H1MacVeB-hTNpFYSpCH-6" target="_H1MacVeB-hTNpFYSpCH-15" edge="1">
          <mxGeometry relative="1" as="geometry" />
        </mxCell>
        <mxCell id="_H1MacVeB-hTNpFYSpCH-42" style="edgeStyle=orthogonalEdgeStyle;orthogonalLoop=1;jettySize=auto;html=1;exitX=1;exitY=0.5;exitDx=0;exitDy=0;entryX=0;entryY=0.5;entryDx=0;entryDy=0;strokeColor=default;endArrow=none;endFill=0;rounded=1;" parent="1" source="_H1MacVeB-hTNpFYSpCH-6" target="_H1MacVeB-hTNpFYSpCH-16" edge="1">
          <mxGeometry relative="1" as="geometry" />
        </mxCell>
        <mxCell id="_H1MacVeB-hTNpFYSpCH-43" style="edgeStyle=orthogonalEdgeStyle;orthogonalLoop=1;jettySize=auto;html=1;exitX=1;exitY=0.5;exitDx=0;exitDy=0;entryX=0;entryY=0.5;entryDx=0;entryDy=0;strokeColor=default;endArrow=none;endFill=0;rounded=1;" parent="1" source="_H1MacVeB-hTNpFYSpCH-6" target="_H1MacVeB-hTNpFYSpCH-17" edge="1">
          <mxGeometry relative="1" as="geometry" />
        </mxCell>
        <mxCell id="_H1MacVeB-hTNpFYSpCH-44" style="edgeStyle=orthogonalEdgeStyle;orthogonalLoop=1;jettySize=auto;html=1;exitX=1;exitY=0.5;exitDx=0;exitDy=0;entryX=0;entryY=0.5;entryDx=0;entryDy=0;strokeColor=default;endArrow=none;endFill=0;rounded=1;" parent="1" source="_H1MacVeB-hTNpFYSpCH-6" target="_H1MacVeB-hTNpFYSpCH-20" edge="1">
          <mxGeometry relative="1" as="geometry" />
        </mxCell>
        <mxCell id="HXhDjkl9s9T9HyKSKgx7-107" style="edgeStyle=orthogonalEdgeStyle;rounded=1;orthogonalLoop=1;jettySize=auto;html=1;exitX=1;exitY=0.5;exitDx=0;exitDy=0;entryX=0;entryY=0.5;entryDx=0;entryDy=0;endArrow=none;endFill=0;" parent="1" source="_H1MacVeB-hTNpFYSpCH-6" target="HXhDjkl9s9T9HyKSKgx7-92" edge="1">
          <mxGeometry relative="1" as="geometry" />
        </mxCell>
        <mxCell id="_H1MacVeB-hTNpFYSpCH-6" value="&quot;DSM&quot;" style="rounded=1;whiteSpace=wrap;html=1;strokeColor=default;" parent="1" vertex="1">
          <mxGeometry x="519" y="104" width="120" height="20" as="geometry" />
        </mxCell>
        <mxCell id="_H1MacVeB-hTNpFYSpCH-45" style="edgeStyle=orthogonalEdgeStyle;orthogonalLoop=1;jettySize=auto;html=1;exitX=1;exitY=0.5;exitDx=0;exitDy=0;entryX=0;entryY=0.5;entryDx=0;entryDy=0;strokeColor=default;endArrow=none;endFill=0;rounded=1;" parent="1" source="_H1MacVeB-hTNpFYSpCH-7" target="_H1MacVeB-hTNpFYSpCH-21" edge="1">
          <mxGeometry relative="1" as="geometry" />
        </mxCell>
        <mxCell id="_H1MacVeB-hTNpFYSpCH-46" style="edgeStyle=orthogonalEdgeStyle;orthogonalLoop=1;jettySize=auto;html=1;exitX=1;exitY=0.5;exitDx=0;exitDy=0;entryX=0;entryY=0.5;entryDx=0;entryDy=0;strokeColor=default;endArrow=none;endFill=0;rounded=1;" parent="1" source="_H1MacVeB-hTNpFYSpCH-7" target="_H1MacVeB-hTNpFYSpCH-22" edge="1">
          <mxGeometry relative="1" as="geometry" />
        </mxCell>
        <mxCell id="_H1MacVeB-hTNpFYSpCH-47" style="edgeStyle=orthogonalEdgeStyle;orthogonalLoop=1;jettySize=auto;html=1;exitX=1;exitY=0.5;exitDx=0;exitDy=0;entryX=0;entryY=0.5;entryDx=0;entryDy=0;strokeColor=default;endArrow=none;endFill=0;rounded=1;" parent="1" source="_H1MacVeB-hTNpFYSpCH-7" target="_H1MacVeB-hTNpFYSpCH-23" edge="1">
          <mxGeometry relative="1" as="geometry" />
        </mxCell>
        <mxCell id="_H1MacVeB-hTNpFYSpCH-48" style="edgeStyle=orthogonalEdgeStyle;orthogonalLoop=1;jettySize=auto;html=1;exitX=1;exitY=0.5;exitDx=0;exitDy=0;entryX=0;entryY=0.5;entryDx=0;entryDy=0;strokeColor=default;endArrow=none;endFill=0;rounded=1;" parent="1" source="_H1MacVeB-hTNpFYSpCH-7" target="_H1MacVeB-hTNpFYSpCH-24" edge="1">
          <mxGeometry relative="1" as="geometry" />
        </mxCell>
        <mxCell id="HXhDjkl9s9T9HyKSKgx7-108" style="edgeStyle=orthogonalEdgeStyle;rounded=1;orthogonalLoop=1;jettySize=auto;html=1;exitX=1;exitY=0.5;exitDx=0;exitDy=0;entryX=0;entryY=0.5;entryDx=0;entryDy=0;endArrow=none;endFill=0;" parent="1" source="_H1MacVeB-hTNpFYSpCH-7" target="HXhDjkl9s9T9HyKSKgx7-104" edge="1">
          <mxGeometry relative="1" as="geometry" />
        </mxCell>
        <mxCell id="_H1MacVeB-hTNpFYSpCH-7" value="&quot;nDSM&quot;" style="rounded=1;whiteSpace=wrap;html=1;strokeColor=default;" parent="1" vertex="1">
          <mxGeometry x="519" y="321" width="120" height="20" as="geometry" />
        </mxCell>
        <mxCell id="_H1MacVeB-hTNpFYSpCH-49" style="edgeStyle=orthogonalEdgeStyle;orthogonalLoop=1;jettySize=auto;html=1;exitX=1;exitY=0.5;exitDx=0;exitDy=0;entryX=0;entryY=0.5;entryDx=0;entryDy=0;strokeColor=default;endArrow=none;endFill=0;rounded=1;" parent="1" target="_H1MacVeB-hTNpFYSpCH-25" edge="1">
          <mxGeometry relative="1" as="geometry">
            <mxPoint x="638.9999999999998" y="540" as="sourcePoint" />
          </mxGeometry>
        </mxCell>
        <mxCell id="_H1MacVeB-hTNpFYSpCH-50" style="edgeStyle=orthogonalEdgeStyle;orthogonalLoop=1;jettySize=auto;html=1;exitX=1;exitY=0.5;exitDx=0;exitDy=0;entryX=0;entryY=0.5;entryDx=0;entryDy=0;strokeColor=default;endArrow=none;endFill=0;rounded=1;" parent="1" target="_H1MacVeB-hTNpFYSpCH-26" edge="1">
          <mxGeometry relative="1" as="geometry">
            <mxPoint x="638.9999999999998" y="540" as="sourcePoint" />
          </mxGeometry>
        </mxCell>
        <mxCell id="_H1MacVeB-hTNpFYSpCH-51" style="edgeStyle=orthogonalEdgeStyle;orthogonalLoop=1;jettySize=auto;html=1;exitX=1;exitY=0.5;exitDx=0;exitDy=0;entryX=0;entryY=0.5;entryDx=0;entryDy=0;strokeColor=default;endArrow=none;endFill=0;rounded=1;" parent="1" target="_H1MacVeB-hTNpFYSpCH-27" edge="1">
          <mxGeometry relative="1" as="geometry">
            <mxPoint x="638.9999999999998" y="540" as="sourcePoint" />
          </mxGeometry>
        </mxCell>
        <mxCell id="_H1MacVeB-hTNpFYSpCH-52" style="edgeStyle=orthogonalEdgeStyle;orthogonalLoop=1;jettySize=auto;html=1;exitX=1;exitY=0.5;exitDx=0;exitDy=0;entryX=0;entryY=0.5;entryDx=0;entryDy=0;strokeColor=default;endArrow=none;endFill=0;rounded=1;" parent="1" target="_H1MacVeB-hTNpFYSpCH-28" edge="1">
          <mxGeometry relative="1" as="geometry">
            <mxPoint x="638.9999999999998" y="540" as="sourcePoint" />
          </mxGeometry>
        </mxCell>
        <mxCell id="_H1MacVeB-hTNpFYSpCH-53" style="edgeStyle=orthogonalEdgeStyle;orthogonalLoop=1;jettySize=auto;html=1;exitX=1;exitY=0.5;exitDx=0;exitDy=0;entryX=0;entryY=0.5;entryDx=0;entryDy=0;strokeColor=default;endArrow=none;endFill=0;rounded=1;" parent="1" target="_H1MacVeB-hTNpFYSpCH-29" edge="1">
          <mxGeometry relative="1" as="geometry">
            <mxPoint x="638.9999999999998" y="540" as="sourcePoint" />
          </mxGeometry>
        </mxCell>
        <mxCell id="HXhDjkl9s9T9HyKSKgx7-109" style="edgeStyle=orthogonalEdgeStyle;rounded=1;orthogonalLoop=1;jettySize=auto;html=1;exitX=1;exitY=0.5;exitDx=0;exitDy=0;entryX=0;entryY=0.5;entryDx=0;entryDy=0;endArrow=none;endFill=0;" parent="1" target="HXhDjkl9s9T9HyKSKgx7-101" edge="1">
          <mxGeometry relative="1" as="geometry">
            <mxPoint x="638.9999999999998" y="540" as="sourcePoint" />
          </mxGeometry>
        </mxCell>
        <mxCell id="_H1MacVeB-hTNpFYSpCH-8" value="&quot;Ortho&quot;" style="rounded=1;whiteSpace=wrap;html=1;strokeColor=default;" parent="1" vertex="1">
          <mxGeometry x="519" y="528" width="120" height="20" as="geometry" />
        </mxCell>
        <mxCell id="_H1MacVeB-hTNpFYSpCH-72" style="edgeStyle=orthogonalEdgeStyle;rounded=0;orthogonalLoop=1;jettySize=auto;html=1;exitX=1;exitY=0.5;exitDx=0;exitDy=0;entryX=0;entryY=0.5;entryDx=0;entryDy=0;endArrow=none;endFill=0;" parent="1" source="_H1MacVeB-hTNpFYSpCH-11" target="_H1MacVeB-hTNpFYSpCH-54" edge="1">
          <mxGeometry relative="1" as="geometry" />
        </mxCell>
        <mxCell id="_H1MacVeB-hTNpFYSpCH-11" value="&quot;mosaic&quot;" style="rounded=1;whiteSpace=wrap;html=1;strokeColor=default;" parent="1" vertex="1">
          <mxGeometry x="689" y="-120" width="120" height="20" as="geometry" />
        </mxCell>
        <mxCell id="_H1MacVeB-hTNpFYSpCH-73" style="edgeStyle=orthogonalEdgeStyle;rounded=0;orthogonalLoop=1;jettySize=auto;html=1;exitX=1;exitY=0.5;exitDx=0;exitDy=0;entryX=0;entryY=0.5;entryDx=0;entryDy=0;endArrow=none;endFill=0;" parent="1" source="_H1MacVeB-hTNpFYSpCH-12" target="_H1MacVeB-hTNpFYSpCH-55" edge="1">
          <mxGeometry relative="1" as="geometry" />
        </mxCell>
        <mxCell id="_H1MacVeB-hTNpFYSpCH-12" value="&quot;tiles&quot;" style="rounded=1;whiteSpace=wrap;html=1;strokeColor=default;" parent="1" vertex="1">
          <mxGeometry x="689" y="-90" width="120" height="20" as="geometry" />
        </mxCell>
        <mxCell id="_H1MacVeB-hTNpFYSpCH-74" style="edgeStyle=orthogonalEdgeStyle;rounded=0;orthogonalLoop=1;jettySize=auto;html=1;exitX=1;exitY=0.5;exitDx=0;exitDy=0;entryX=0;entryY=0.5;entryDx=0;entryDy=0;endArrow=none;endFill=0;" parent="1" source="_H1MacVeB-hTNpFYSpCH-13" target="_H1MacVeB-hTNpFYSpCH-56" edge="1">
          <mxGeometry relative="1" as="geometry" />
        </mxCell>
        <mxCell id="_H1MacVeB-hTNpFYSpCH-13" value="&quot;year&quot;" style="rounded=1;whiteSpace=wrap;html=1;strokeColor=default;" parent="1" vertex="1">
          <mxGeometry x="689" y="-60" width="120" height="20" as="geometry" />
        </mxCell>
        <mxCell id="_H1MacVeB-hTNpFYSpCH-76" style="edgeStyle=orthogonalEdgeStyle;rounded=0;orthogonalLoop=1;jettySize=auto;html=1;exitX=1;exitY=0.5;exitDx=0;exitDy=0;entryX=0;entryY=0.5;entryDx=0;entryDy=0;endArrow=none;endFill=0;" parent="1" source="_H1MacVeB-hTNpFYSpCH-15" target="_H1MacVeB-hTNpFYSpCH-57" edge="1">
          <mxGeometry relative="1" as="geometry" />
        </mxCell>
        <mxCell id="_H1MacVeB-hTNpFYSpCH-15" value="&quot;mosaic&quot;" style="rounded=1;whiteSpace=wrap;html=1;strokeColor=default;" parent="1" vertex="1">
          <mxGeometry x="689" y="43" width="120" height="20" as="geometry" />
        </mxCell>
        <mxCell id="_H1MacVeB-hTNpFYSpCH-77" style="edgeStyle=orthogonalEdgeStyle;rounded=0;orthogonalLoop=1;jettySize=auto;html=1;exitX=1;exitY=0.5;exitDx=0;exitDy=0;entryX=0;entryY=0.5;entryDx=0;entryDy=0;endArrow=none;endFill=0;" parent="1" source="_H1MacVeB-hTNpFYSpCH-16" target="_H1MacVeB-hTNpFYSpCH-58" edge="1">
          <mxGeometry relative="1" as="geometry" />
        </mxCell>
        <mxCell id="_H1MacVeB-hTNpFYSpCH-16" value="&quot;tiles&quot;" style="rounded=1;whiteSpace=wrap;html=1;strokeColor=default;" parent="1" vertex="1">
          <mxGeometry x="689" y="73" width="120" height="20" as="geometry" />
        </mxCell>
        <mxCell id="_H1MacVeB-hTNpFYSpCH-78" style="edgeStyle=orthogonalEdgeStyle;rounded=0;orthogonalLoop=1;jettySize=auto;html=1;exitX=1;exitY=0.5;exitDx=0;exitDy=0;entryX=0;entryY=0.5;entryDx=0;entryDy=0;endArrow=none;endFill=0;" parent="1" source="_H1MacVeB-hTNpFYSpCH-17" target="_H1MacVeB-hTNpFYSpCH-59" edge="1">
          <mxGeometry relative="1" as="geometry" />
        </mxCell>
        <mxCell id="_H1MacVeB-hTNpFYSpCH-17" value="&quot;year&quot;" style="rounded=1;whiteSpace=wrap;html=1;strokeColor=default;" parent="1" vertex="1">
          <mxGeometry x="689" y="103" width="120" height="20" as="geometry" />
        </mxCell>
        <mxCell id="_H1MacVeB-hTNpFYSpCH-79" style="edgeStyle=orthogonalEdgeStyle;rounded=0;orthogonalLoop=1;jettySize=auto;html=1;exitX=1;exitY=0.5;exitDx=0;exitDy=0;entryX=0;entryY=0.5;entryDx=0;entryDy=0;endArrow=none;endFill=0;" parent="1" source="_H1MacVeB-hTNpFYSpCH-20" target="_H1MacVeB-hTNpFYSpCH-71" edge="1">
          <mxGeometry relative="1" as="geometry" />
        </mxCell>
        <mxCell id="_H1MacVeB-hTNpFYSpCH-20" value="&quot;description&quot;" style="rounded=1;whiteSpace=wrap;html=1;strokeColor=default;" parent="1" vertex="1">
          <mxGeometry x="689" y="133" width="120" height="20" as="geometry" />
        </mxCell>
        <mxCell id="_H1MacVeB-hTNpFYSpCH-80" style="edgeStyle=orthogonalEdgeStyle;rounded=0;orthogonalLoop=1;jettySize=auto;html=1;exitX=1;exitY=0.5;exitDx=0;exitDy=0;entryX=0;entryY=0.5;entryDx=0;entryDy=0;endArrow=none;endFill=0;" parent="1" source="_H1MacVeB-hTNpFYSpCH-21" target="_H1MacVeB-hTNpFYSpCH-60" edge="1">
          <mxGeometry relative="1" as="geometry" />
        </mxCell>
        <mxCell id="_H1MacVeB-hTNpFYSpCH-21" value="&quot;mosaic&quot;" style="rounded=1;whiteSpace=wrap;html=1;strokeColor=default;" parent="1" vertex="1">
          <mxGeometry x="689" y="261" width="120" height="20" as="geometry" />
        </mxCell>
        <mxCell id="_H1MacVeB-hTNpFYSpCH-81" style="edgeStyle=orthogonalEdgeStyle;rounded=0;orthogonalLoop=1;jettySize=auto;html=1;exitX=1;exitY=0.5;exitDx=0;exitDy=0;entryX=0;entryY=0.5;entryDx=0;entryDy=0;endArrow=none;endFill=0;" parent="1" source="_H1MacVeB-hTNpFYSpCH-22" target="_H1MacVeB-hTNpFYSpCH-61" edge="1">
          <mxGeometry relative="1" as="geometry" />
        </mxCell>
        <mxCell id="_H1MacVeB-hTNpFYSpCH-22" value="&quot;tiles&quot;" style="rounded=1;whiteSpace=wrap;html=1;strokeColor=default;" parent="1" vertex="1">
          <mxGeometry x="689" y="291" width="120" height="20" as="geometry" />
        </mxCell>
        <mxCell id="_H1MacVeB-hTNpFYSpCH-82" style="edgeStyle=orthogonalEdgeStyle;rounded=0;orthogonalLoop=1;jettySize=auto;html=1;exitX=1;exitY=0.5;exitDx=0;exitDy=0;entryX=0;entryY=0.5;entryDx=0;entryDy=0;endArrow=none;endFill=0;" parent="1" source="_H1MacVeB-hTNpFYSpCH-23" target="_H1MacVeB-hTNpFYSpCH-62" edge="1">
          <mxGeometry relative="1" as="geometry" />
        </mxCell>
        <mxCell id="_H1MacVeB-hTNpFYSpCH-23" value="&quot;year&quot;" style="rounded=1;whiteSpace=wrap;html=1;strokeColor=default;" parent="1" vertex="1">
          <mxGeometry x="689" y="321" width="120" height="20" as="geometry" />
        </mxCell>
        <mxCell id="_H1MacVeB-hTNpFYSpCH-83" style="edgeStyle=orthogonalEdgeStyle;rounded=0;orthogonalLoop=1;jettySize=auto;html=1;exitX=1;exitY=0.5;exitDx=0;exitDy=0;entryX=0;entryY=0.5;entryDx=0;entryDy=0;endArrow=none;endFill=0;" parent="1" source="_H1MacVeB-hTNpFYSpCH-24" target="_H1MacVeB-hTNpFYSpCH-68" edge="1">
          <mxGeometry relative="1" as="geometry" />
        </mxCell>
        <mxCell id="_H1MacVeB-hTNpFYSpCH-24" value="&quot;description&quot;" style="rounded=1;whiteSpace=wrap;html=1;strokeColor=default;" parent="1" vertex="1">
          <mxGeometry x="689" y="351" width="120" height="20" as="geometry" />
        </mxCell>
        <mxCell id="_H1MacVeB-hTNpFYSpCH-84" style="edgeStyle=orthogonalEdgeStyle;rounded=0;orthogonalLoop=1;jettySize=auto;html=1;exitX=1;exitY=0.5;exitDx=0;exitDy=0;entryX=0;entryY=0.5;entryDx=0;entryDy=0;endArrow=none;endFill=0;" parent="1" source="_H1MacVeB-hTNpFYSpCH-25" target="_H1MacVeB-hTNpFYSpCH-63" edge="1">
          <mxGeometry relative="1" as="geometry" />
        </mxCell>
        <mxCell id="_H1MacVeB-hTNpFYSpCH-25" value="&quot;mosaic&quot;" style="rounded=1;whiteSpace=wrap;html=1;strokeColor=default;" parent="1" vertex="1">
          <mxGeometry x="689" y="455" width="120" height="20" as="geometry" />
        </mxCell>
        <mxCell id="_H1MacVeB-hTNpFYSpCH-85" style="edgeStyle=orthogonalEdgeStyle;rounded=0;orthogonalLoop=1;jettySize=auto;html=1;exitX=1;exitY=0.5;exitDx=0;exitDy=0;entryX=0;entryY=0.5;entryDx=0;entryDy=0;endArrow=none;endFill=0;" parent="1" source="_H1MacVeB-hTNpFYSpCH-26" target="_H1MacVeB-hTNpFYSpCH-64" edge="1">
          <mxGeometry relative="1" as="geometry" />
        </mxCell>
        <mxCell id="_H1MacVeB-hTNpFYSpCH-26" value="&quot;tiles&quot;" style="rounded=1;whiteSpace=wrap;html=1;strokeColor=default;" parent="1" vertex="1">
          <mxGeometry x="689" y="485" width="120" height="20" as="geometry" />
        </mxCell>
        <mxCell id="_H1MacVeB-hTNpFYSpCH-86" style="edgeStyle=orthogonalEdgeStyle;rounded=0;orthogonalLoop=1;jettySize=auto;html=1;exitX=1;exitY=0.5;exitDx=0;exitDy=0;entryX=0;entryY=0.5;entryDx=0;entryDy=0;endArrow=none;endFill=0;" parent="1" source="_H1MacVeB-hTNpFYSpCH-27" target="_H1MacVeB-hTNpFYSpCH-65" edge="1">
          <mxGeometry relative="1" as="geometry" />
        </mxCell>
        <mxCell id="_H1MacVeB-hTNpFYSpCH-27" value="&quot;year&quot;" style="rounded=1;whiteSpace=wrap;html=1;strokeColor=default;" parent="1" vertex="1">
          <mxGeometry x="689" y="515" width="120" height="20" as="geometry" />
        </mxCell>
        <mxCell id="_H1MacVeB-hTNpFYSpCH-87" style="edgeStyle=orthogonalEdgeStyle;rounded=0;orthogonalLoop=1;jettySize=auto;html=1;exitX=1;exitY=0.5;exitDx=0;exitDy=0;entryX=0;entryY=0.5;entryDx=0;entryDy=0;endArrow=none;endFill=0;" parent="1" source="_H1MacVeB-hTNpFYSpCH-28" target="_H1MacVeB-hTNpFYSpCH-66" edge="1">
          <mxGeometry relative="1" as="geometry" />
        </mxCell>
        <mxCell id="_H1MacVeB-hTNpFYSpCH-28" value="&quot;description&quot;" style="rounded=1;whiteSpace=wrap;html=1;strokeColor=default;" parent="1" vertex="1">
          <mxGeometry x="689" y="545" width="120" height="20" as="geometry" />
        </mxCell>
        <mxCell id="_H1MacVeB-hTNpFYSpCH-89" style="edgeStyle=orthogonalEdgeStyle;rounded=0;orthogonalLoop=1;jettySize=auto;html=1;exitX=1;exitY=0.5;exitDx=0;exitDy=0;entryX=0;entryY=0.5;entryDx=0;entryDy=0;endArrow=none;endFill=0;" parent="1" source="_H1MacVeB-hTNpFYSpCH-29" target="_H1MacVeB-hTNpFYSpCH-67" edge="1">
          <mxGeometry relative="1" as="geometry" />
        </mxCell>
        <mxCell id="_H1MacVeB-hTNpFYSpCH-29" value="&quot;dop_tdop&quot;" style="rounded=1;whiteSpace=wrap;html=1;strokeColor=default;" parent="1" vertex="1">
          <mxGeometry x="689" y="575" width="120" height="20" as="geometry" />
        </mxCell>
        <mxCell id="_H1MacVeB-hTNpFYSpCH-54" value="String or null" style="rounded=1;whiteSpace=wrap;html=1;strokeColor=#82b366;fillColor=#d5e8d4;" parent="1" vertex="1">
          <mxGeometry x="829" y="-120" width="120" height="20" as="geometry" />
        </mxCell>
        <mxCell id="_H1MacVeB-hTNpFYSpCH-55" value="String or null" style="rounded=1;whiteSpace=wrap;html=1;strokeColor=#82b366;fillColor=#d5e8d4;" parent="1" vertex="1">
          <mxGeometry x="829" y="-90" width="120" height="20" as="geometry" />
        </mxCell>
        <mxCell id="_H1MacVeB-hTNpFYSpCH-56" value="String or null" style="rounded=1;whiteSpace=wrap;html=1;strokeColor=#82b366;fillColor=#d5e8d4;" parent="1" vertex="1">
          <mxGeometry x="829" y="-60" width="120" height="20" as="geometry" />
        </mxCell>
        <mxCell id="_H1MacVeB-hTNpFYSpCH-57" value="String or null" style="rounded=1;whiteSpace=wrap;html=1;strokeColor=#82b366;fillColor=#d5e8d4;" parent="1" vertex="1">
          <mxGeometry x="829" y="43" width="120" height="20" as="geometry" />
        </mxCell>
        <mxCell id="_H1MacVeB-hTNpFYSpCH-58" value="String or null" style="rounded=1;whiteSpace=wrap;html=1;strokeColor=#82b366;fillColor=#d5e8d4;" parent="1" vertex="1">
          <mxGeometry x="829" y="73" width="120" height="20" as="geometry" />
        </mxCell>
        <mxCell id="_H1MacVeB-hTNpFYSpCH-59" value="String or null" style="rounded=1;whiteSpace=wrap;html=1;strokeColor=#82b366;fillColor=#d5e8d4;" parent="1" vertex="1">
          <mxGeometry x="829" y="103" width="120" height="20" as="geometry" />
        </mxCell>
        <mxCell id="_H1MacVeB-hTNpFYSpCH-60" value="String or null" style="rounded=1;whiteSpace=wrap;html=1;strokeColor=#82b366;fillColor=#d5e8d4;" parent="1" vertex="1">
          <mxGeometry x="829" y="261" width="120" height="20" as="geometry" />
        </mxCell>
        <mxCell id="_H1MacVeB-hTNpFYSpCH-61" value="String or null" style="rounded=1;whiteSpace=wrap;html=1;strokeColor=#82b366;fillColor=#d5e8d4;" parent="1" vertex="1">
          <mxGeometry x="829" y="291" width="120" height="20" as="geometry" />
        </mxCell>
        <mxCell id="_H1MacVeB-hTNpFYSpCH-62" value="String or null" style="rounded=1;whiteSpace=wrap;html=1;strokeColor=#82b366;fillColor=#d5e8d4;" parent="1" vertex="1">
          <mxGeometry x="829" y="321" width="120" height="20" as="geometry" />
        </mxCell>
        <mxCell id="_H1MacVeB-hTNpFYSpCH-63" value="String or null" style="rounded=1;whiteSpace=wrap;html=1;strokeColor=#82b366;fillColor=#d5e8d4;" parent="1" vertex="1">
          <mxGeometry x="829" y="455" width="120" height="20" as="geometry" />
        </mxCell>
        <mxCell id="_H1MacVeB-hTNpFYSpCH-64" value="String or null" style="rounded=1;whiteSpace=wrap;html=1;strokeColor=#82b366;fillColor=#d5e8d4;" parent="1" vertex="1">
          <mxGeometry x="829" y="485" width="120" height="20" as="geometry" />
        </mxCell>
        <mxCell id="_H1MacVeB-hTNpFYSpCH-65" value="String or null" style="rounded=1;whiteSpace=wrap;html=1;strokeColor=#82b366;fillColor=#d5e8d4;" parent="1" vertex="1">
          <mxGeometry x="829" y="515" width="120" height="20" as="geometry" />
        </mxCell>
        <mxCell id="_H1MacVeB-hTNpFYSpCH-66" value="String or null" style="rounded=1;whiteSpace=wrap;html=1;strokeColor=#82b366;fillColor=#d5e8d4;" parent="1" vertex="1">
          <mxGeometry x="829" y="545" width="120" height="20" as="geometry" />
        </mxCell>
        <mxCell id="_H1MacVeB-hTNpFYSpCH-67" value="String or null" style="rounded=1;whiteSpace=wrap;html=1;strokeColor=#82b366;fillColor=#d5e8d4;" parent="1" vertex="1">
          <mxGeometry x="829" y="575" width="120" height="20" as="geometry" />
        </mxCell>
        <mxCell id="_H1MacVeB-hTNpFYSpCH-68" value="String or null" style="rounded=1;whiteSpace=wrap;html=1;strokeColor=#82b366;fillColor=#d5e8d4;" parent="1" vertex="1">
          <mxGeometry x="829" y="351" width="120" height="20" as="geometry" />
        </mxCell>
        <mxCell id="_H1MacVeB-hTNpFYSpCH-71" value="String or null" style="rounded=1;whiteSpace=wrap;html=1;strokeColor=#82b366;fillColor=#d5e8d4;" parent="1" vertex="1">
          <mxGeometry x="829" y="133" width="120" height="20" as="geometry" />
        </mxCell>
        <mxCell id="Qochi8s055zn3npeWH5I-7" style="edgeStyle=orthogonalEdgeStyle;rounded=1;orthogonalLoop=1;jettySize=auto;html=1;exitX=1;exitY=0.5;exitDx=0;exitDy=0;entryX=0;entryY=0.5;entryDx=0;entryDy=0;endArrow=none;endFill=0;" parent="1" source="Qochi8s055zn3npeWH5I-1" target="Qochi8s055zn3npeWH5I-3" edge="1">
          <mxGeometry relative="1" as="geometry" />
        </mxCell>
        <mxCell id="Qochi8s055zn3npeWH5I-8" style="edgeStyle=orthogonalEdgeStyle;rounded=1;orthogonalLoop=1;jettySize=auto;html=1;exitX=1;exitY=0.5;exitDx=0;exitDy=0;entryX=0;entryY=0.5;entryDx=0;entryDy=0;endArrow=none;endFill=0;" parent="1" source="Qochi8s055zn3npeWH5I-1" target="Qochi8s055zn3npeWH5I-2" edge="1">
          <mxGeometry relative="1" as="geometry" />
        </mxCell>
        <mxCell id="Qochi8s055zn3npeWH5I-1" value="&quot;METADATA&quot;" style="rounded=1;whiteSpace=wrap;html=1;strokeColor=default;" parent="1" vertex="1">
          <mxGeometry x="519" y="654" width="120" height="20" as="geometry" />
        </mxCell>
        <mxCell id="Qochi8s055zn3npeWH5I-10" style="edgeStyle=orthogonalEdgeStyle;rounded=0;orthogonalLoop=1;jettySize=auto;html=1;exitX=1;exitY=0.5;exitDx=0;exitDy=0;entryX=0;entryY=0.5;entryDx=0;entryDy=0;" parent="1" source="Qochi8s055zn3npeWH5I-2" target="Qochi8s055zn3npeWH5I-5" edge="1">
          <mxGeometry relative="1" as="geometry" />
        </mxCell>
        <mxCell id="Qochi8s055zn3npeWH5I-2" value="&quot;output_dir&quot;" style="rounded=1;whiteSpace=wrap;html=1;strokeColor=default;" parent="1" vertex="1">
          <mxGeometry x="689" y="669" width="120" height="20" as="geometry" />
        </mxCell>
        <mxCell id="Qochi8s055zn3npeWH5I-9" style="edgeStyle=orthogonalEdgeStyle;rounded=0;orthogonalLoop=1;jettySize=auto;html=1;exitX=1;exitY=0.5;exitDx=0;exitDy=0;entryX=0;entryY=0.5;entryDx=0;entryDy=0;" parent="1" source="Qochi8s055zn3npeWH5I-3" target="Qochi8s055zn3npeWH5I-4" edge="1">
          <mxGeometry relative="1" as="geometry" />
        </mxCell>
        <mxCell id="Qochi8s055zn3npeWH5I-3" value="&quot;README_name&quot;" style="rounded=1;whiteSpace=wrap;html=1;strokeColor=default;" parent="1" vertex="1">
          <mxGeometry x="689" y="639" width="120" height="20" as="geometry" />
        </mxCell>
        <mxCell id="Qochi8s055zn3npeWH5I-4" value="??" style="rounded=1;whiteSpace=wrap;html=1;strokeColor=#82b366;fillColor=#d5e8d4;" parent="1" vertex="1">
          <mxGeometry x="829" y="639" width="120" height="20" as="geometry" />
        </mxCell>
        <mxCell id="Qochi8s055zn3npeWH5I-5" value="String" style="rounded=1;whiteSpace=wrap;html=1;strokeColor=#82b366;fillColor=#d5e8d4;" parent="1" vertex="1">
          <mxGeometry x="829" y="669" width="120" height="20" as="geometry" />
        </mxCell>
        <mxCell id="HXhDjkl9s9T9HyKSKgx7-90" style="edgeStyle=orthogonalEdgeStyle;rounded=0;orthogonalLoop=1;jettySize=auto;html=1;exitX=1;exitY=0.5;exitDx=0;exitDy=0;entryX=0;entryY=0.5;entryDx=0;entryDy=0;endArrow=none;endFill=0;" parent="1" source="HXhDjkl9s9T9HyKSKgx7-88" target="HXhDjkl9s9T9HyKSKgx7-89" edge="1">
          <mxGeometry relative="1" as="geometry" />
        </mxCell>
        <mxCell id="HXhDjkl9s9T9HyKSKgx7-88" value="&quot;noData&quot;" style="rounded=1;whiteSpace=wrap;html=1;strokeColor=default;" parent="1" vertex="1">
          <mxGeometry x="689" y="-30" width="120" height="20" as="geometry" />
        </mxCell>
        <mxCell id="HXhDjkl9s9T9HyKSKgx7-89" value="String or null" style="rounded=1;whiteSpace=wrap;html=1;strokeColor=#82b366;fillColor=#d5e8d4;" parent="1" vertex="1">
          <mxGeometry x="829" y="-30" width="120" height="20" as="geometry" />
        </mxCell>
        <mxCell id="HXhDjkl9s9T9HyKSKgx7-91" style="edgeStyle=orthogonalEdgeStyle;rounded=0;orthogonalLoop=1;jettySize=auto;html=1;exitX=1;exitY=0.5;exitDx=0;exitDy=0;entryX=0;entryY=0.5;entryDx=0;entryDy=0;endArrow=none;endFill=0;" parent="1" source="HXhDjkl9s9T9HyKSKgx7-92" target="HXhDjkl9s9T9HyKSKgx7-93" edge="1">
          <mxGeometry relative="1" as="geometry" />
        </mxCell>
        <mxCell id="HXhDjkl9s9T9HyKSKgx7-92" value="&quot;noData&quot;" style="rounded=1;whiteSpace=wrap;html=1;strokeColor=default;" parent="1" vertex="1">
          <mxGeometry x="689" y="165" width="120" height="20" as="geometry" />
        </mxCell>
        <mxCell id="HXhDjkl9s9T9HyKSKgx7-93" value="String or null" style="rounded=1;whiteSpace=wrap;html=1;strokeColor=#82b366;fillColor=#d5e8d4;" parent="1" vertex="1">
          <mxGeometry x="829" y="165" width="120" height="20" as="geometry" />
        </mxCell>
        <mxCell id="HXhDjkl9s9T9HyKSKgx7-94" style="edgeStyle=orthogonalEdgeStyle;rounded=0;orthogonalLoop=1;jettySize=auto;html=1;exitX=1;exitY=0.5;exitDx=0;exitDy=0;entryX=0;entryY=0.5;entryDx=0;entryDy=0;endArrow=none;endFill=0;" parent="1" edge="1">
          <mxGeometry relative="1" as="geometry">
            <mxPoint x="780" y="340" as="sourcePoint" />
          </mxGeometry>
        </mxCell>
        <mxCell id="HXhDjkl9s9T9HyKSKgx7-100" style="edgeStyle=orthogonalEdgeStyle;rounded=0;orthogonalLoop=1;jettySize=auto;html=1;exitX=1;exitY=0.5;exitDx=0;exitDy=0;entryX=0;entryY=0.5;entryDx=0;entryDy=0;endArrow=none;endFill=0;" parent="1" source="HXhDjkl9s9T9HyKSKgx7-101" target="HXhDjkl9s9T9HyKSKgx7-102" edge="1">
          <mxGeometry relative="1" as="geometry" />
        </mxCell>
        <mxCell id="HXhDjkl9s9T9HyKSKgx7-101" value="&quot;noData&quot;" style="rounded=1;whiteSpace=wrap;html=1;strokeColor=default;" parent="1" vertex="1">
          <mxGeometry x="689" y="605" width="120" height="20" as="geometry" />
        </mxCell>
        <mxCell id="HXhDjkl9s9T9HyKSKgx7-102" value="String or null" style="rounded=1;whiteSpace=wrap;html=1;strokeColor=#82b366;fillColor=#d5e8d4;" parent="1" vertex="1">
          <mxGeometry x="829" y="605" width="120" height="20" as="geometry" />
        </mxCell>
        <mxCell id="HXhDjkl9s9T9HyKSKgx7-110" style="edgeStyle=orthogonalEdgeStyle;rounded=0;orthogonalLoop=1;jettySize=auto;html=1;exitX=1;exitY=0.5;exitDx=0;exitDy=0;entryX=0;entryY=0.5;entryDx=0;entryDy=0;endArrow=none;endFill=0;" parent="1" source="HXhDjkl9s9T9HyKSKgx7-104" target="HXhDjkl9s9T9HyKSKgx7-105" edge="1">
          <mxGeometry relative="1" as="geometry" />
        </mxCell>
        <mxCell id="HXhDjkl9s9T9HyKSKgx7-104" value="&quot;noData&quot;" style="rounded=1;whiteSpace=wrap;html=1;strokeColor=default;" parent="1" vertex="1">
          <mxGeometry x="689" y="381" width="120" height="20" as="geometry" />
        </mxCell>
        <mxCell id="HXhDjkl9s9T9HyKSKgx7-105" value="String or null" style="rounded=1;whiteSpace=wrap;html=1;strokeColor=#82b366;fillColor=#d5e8d4;" parent="1" vertex="1">
          <mxGeometry x="829" y="381" width="120" height="20" as="geometry" />
        </mxCell>
        <mxCell id="K514Xo46BriTs5l9SpRu-3" value="" style="edgeStyle=orthogonalEdgeStyle;orthogonalLoop=1;jettySize=auto;html=1;exitX=1;exitY=0.5;exitDx=0;exitDy=0;entryX=0;entryY=0.5;entryDx=0;entryDy=0;strokeColor=default;endArrow=none;endFill=0;rounded=1;" edge="1" parent="1" source="_H1MacVeB-hTNpFYSpCH-4">
          <mxGeometry relative="1" as="geometry">
            <mxPoint x="424" y="190" as="sourcePoint" />
            <mxPoint x="460" y="-65" as="targetPoint" />
            <Array as="points">
              <mxPoint x="450" y="190" />
            </Array>
          </mxGeometry>
        </mxCell>
        <mxCell id="K514Xo46BriTs5l9SpRu-4" value="&quot;process?&quot;" style="rounded=1;whiteSpace=wrap;html=1;strokeColor=default;" vertex="1" parent="1">
          <mxGeometry x="690" y="-150" width="119" height="20" as="geometry" />
        </mxCell>
        <mxCell id="K514Xo46BriTs5l9SpRu-5" value="True or False" style="rounded=1;whiteSpace=wrap;html=1;strokeColor=#82b366;fillColor=#d5e8d4;" vertex="1" parent="1">
          <mxGeometry x="829" y="-150" width="120" height="20" as="geometry" />
        </mxCell>
        <mxCell id="K514Xo46BriTs5l9SpRu-8" style="edgeStyle=orthogonalEdgeStyle;orthogonalLoop=1;jettySize=auto;html=1;exitX=1;exitY=0.5;exitDx=0;exitDy=0;entryX=0;entryY=0.5;entryDx=0;entryDy=0;strokeColor=default;endArrow=none;endFill=0;rounded=1;" edge="1" parent="1" source="_H1MacVeB-hTNpFYSpCH-5" target="K514Xo46BriTs5l9SpRu-4">
          <mxGeometry relative="1" as="geometry">
            <mxPoint x="649" y="-55" as="sourcePoint" />
            <mxPoint x="699" y="-100" as="targetPoint" />
          </mxGeometry>
        </mxCell>
        <mxCell id="K514Xo46BriTs5l9SpRu-9" style="edgeStyle=orthogonalEdgeStyle;rounded=0;orthogonalLoop=1;jettySize=auto;html=1;exitX=1;exitY=0.5;exitDx=0;exitDy=0;entryX=0.005;entryY=0.541;entryDx=0;entryDy=0;endArrow=none;endFill=0;entryPerimeter=0;" edge="1" parent="1" source="K514Xo46BriTs5l9SpRu-4" target="K514Xo46BriTs5l9SpRu-5">
          <mxGeometry relative="1" as="geometry">
            <mxPoint x="819" y="-100" as="sourcePoint" />
            <mxPoint x="839" y="-100" as="targetPoint" />
          </mxGeometry>
        </mxCell>
        <mxCell id="K514Xo46BriTs5l9SpRu-16" value="&quot;process?&quot;" style="rounded=1;whiteSpace=wrap;html=1;strokeColor=default;" vertex="1" parent="1">
          <mxGeometry x="690" y="12" width="119" height="20" as="geometry" />
        </mxCell>
        <mxCell id="K514Xo46BriTs5l9SpRu-17" value="True or False" style="rounded=1;whiteSpace=wrap;html=1;strokeColor=#82b366;fillColor=#d5e8d4;" vertex="1" parent="1">
          <mxGeometry x="829" y="12" width="120" height="20" as="geometry" />
        </mxCell>
        <mxCell id="K514Xo46BriTs5l9SpRu-18" style="edgeStyle=orthogonalEdgeStyle;orthogonalLoop=1;jettySize=auto;html=1;entryX=0;entryY=0.5;entryDx=0;entryDy=0;strokeColor=default;endArrow=none;endFill=0;rounded=1;" edge="1" parent="1" target="K514Xo46BriTs5l9SpRu-16">
          <mxGeometry relative="1" as="geometry">
            <mxPoint x="640" y="112" as="sourcePoint" />
            <mxPoint x="699" y="63" as="targetPoint" />
          </mxGeometry>
        </mxCell>
        <mxCell id="K514Xo46BriTs5l9SpRu-19" value="&quot;process?&quot;" style="rounded=1;whiteSpace=wrap;html=1;strokeColor=default;" vertex="1" parent="1">
          <mxGeometry x="690" y="425" width="119" height="20" as="geometry" />
        </mxCell>
        <mxCell id="K514Xo46BriTs5l9SpRu-20" value="True or False" style="rounded=1;whiteSpace=wrap;html=1;strokeColor=#82b366;fillColor=#d5e8d4;" vertex="1" parent="1">
          <mxGeometry x="829" y="425" width="120" height="20" as="geometry" />
        </mxCell>
        <mxCell id="K514Xo46BriTs5l9SpRu-21" value="&quot;process?&quot;" style="rounded=1;whiteSpace=wrap;html=1;strokeColor=default;" vertex="1" parent="1">
          <mxGeometry x="690" y="230" width="119" height="20" as="geometry" />
        </mxCell>
        <mxCell id="K514Xo46BriTs5l9SpRu-22" value="True or False" style="rounded=1;whiteSpace=wrap;html=1;strokeColor=#82b366;fillColor=#d5e8d4;" vertex="1" parent="1">
          <mxGeometry x="829" y="230" width="120" height="20" as="geometry" />
        </mxCell>
        <mxCell id="K514Xo46BriTs5l9SpRu-23" style="edgeStyle=orthogonalEdgeStyle;orthogonalLoop=1;jettySize=auto;html=1;entryX=0;entryY=0.5;entryDx=0;entryDy=0;strokeColor=default;endArrow=none;endFill=0;rounded=1;" edge="1" parent="1" target="K514Xo46BriTs5l9SpRu-21">
          <mxGeometry relative="1" as="geometry">
            <mxPoint x="640" y="330" as="sourcePoint" />
            <mxPoint x="699" y="281" as="targetPoint" />
          </mxGeometry>
        </mxCell>
        <mxCell id="K514Xo46BriTs5l9SpRu-24" style="edgeStyle=orthogonalEdgeStyle;orthogonalLoop=1;jettySize=auto;html=1;exitX=1;exitY=0.5;exitDx=0;exitDy=0;entryX=0;entryY=0.5;entryDx=0;entryDy=0;strokeColor=default;endArrow=none;endFill=0;rounded=1;" edge="1" parent="1" target="K514Xo46BriTs5l9SpRu-19">
          <mxGeometry relative="1" as="geometry">
            <mxPoint x="638.9999999999998" y="540" as="sourcePoint" />
            <mxPoint x="699" y="475" as="targetPoint" />
          </mxGeometry>
        </mxCell>
        <mxCell id="K514Xo46BriTs5l9SpRu-25" style="edgeStyle=orthogonalEdgeStyle;rounded=0;orthogonalLoop=1;jettySize=auto;html=1;exitX=1;exitY=0.5;exitDx=0;exitDy=0;entryX=0;entryY=0.5;entryDx=0;entryDy=0;endArrow=none;endFill=0;" edge="1" parent="1" source="K514Xo46BriTs5l9SpRu-21" target="K514Xo46BriTs5l9SpRu-22">
          <mxGeometry relative="1" as="geometry">
            <mxPoint x="819" y="281" as="sourcePoint" />
            <mxPoint x="839" y="281" as="targetPoint" />
            <Array as="points">
              <mxPoint x="820" y="240" />
              <mxPoint x="820" y="240" />
            </Array>
          </mxGeometry>
        </mxCell>
        <mxCell id="K514Xo46BriTs5l9SpRu-26" style="edgeStyle=orthogonalEdgeStyle;rounded=0;orthogonalLoop=1;jettySize=auto;html=1;exitX=1;exitY=0.5;exitDx=0;exitDy=0;endArrow=none;endFill=0;entryX=0;entryY=0.5;entryDx=0;entryDy=0;" edge="1" parent="1" source="K514Xo46BriTs5l9SpRu-16" target="K514Xo46BriTs5l9SpRu-17">
          <mxGeometry relative="1" as="geometry">
            <mxPoint x="819" y="63" as="sourcePoint" />
            <mxPoint x="820" y="30" as="targetPoint" />
          </mxGeometry>
        </mxCell>
        <mxCell id="K514Xo46BriTs5l9SpRu-27" style="edgeStyle=orthogonalEdgeStyle;rounded=0;orthogonalLoop=1;jettySize=auto;html=1;exitX=1;exitY=0.5;exitDx=0;exitDy=0;entryX=-0.015;entryY=0.55;entryDx=0;entryDy=0;endArrow=none;endFill=0;entryPerimeter=0;" edge="1" parent="1" source="K514Xo46BriTs5l9SpRu-19" target="K514Xo46BriTs5l9SpRu-20">
          <mxGeometry relative="1" as="geometry">
            <mxPoint x="819" y="401" as="sourcePoint" />
            <mxPoint x="839" y="401" as="targetPoint" />
          </mxGeometry>
        </mxCell>
      </root>
    </mxGraphModel>
  </diagram>
</mxfile>
